<svg id="Layer_1" data-name="Layer 1" xmlns="http://www.w3.org/2000/svg" viewBox="0 0 60.79 44.7"><defs><style>.cls-1{fill:#009ba1;}</style></defs><path class="cls-1" d="M26.3,15.7a2.87,2.87,0,0,1,1.2.2,1,1,0,0,0,1.2.2c0-1.2,0-1.8-1-1.8S26,15.9,26.3,15.7Z"/><path class="cls-1" d="M40.3,13.7H40a.6.6,0,0,0-.4.1,1.6,1.6,0,0,1,.2,1.5,1.53,1.53,0,0,1-1.9.9h0a1.42,1.42,0,0,1-.9-.8,3.92,3.92,0,0,0-.9,2.6,4.1,4.1,0,0,0,4,4.1h0a4,4,0,0,0,3.3-1.8,3.89,3.89,0,0,0,.7-2.3A3.93,3.93,0,0,0,40.3,13.7Z"/><path class="cls-1" d="M53.8,15.8a5.7,5.7,0,0,0-1.3.1c0-.1,0-.1-.1-.2a.9.9,0,0,1-.1-.5c-.1-.3-.2-.7-.3-1a6.89,6.89,0,0,0-.4-1,3.55,3.55,0,0,0-.4-.9c-.2-.3-.3-.6-.5-.9s-.3-.6-.5-.9l-.6-.9L49,8.8a5.55,5.55,0,0,0-.6-.8,5.55,5.55,0,0,1-.6-.8l-.7-.7a4.62,4.62,0,0,1-.7-.7,5.55,5.55,0,0,1-.8-.6c-.2-.2-.6-.5-.8-.7l-.9-.6L43,3.3a5.94,5.94,0,0,0-.8-.4l-.9-.5a3,3,0,0,0-1-.4c-.3-.1-.7-.3-1-.4a4.18,4.18,0,0,1-1-.4c-.4-.1-.7-.2-1-.3s-.7-.2-1-.3a3.55,3.55,0,0,0-1-.2A5.16,5.16,0,0,0,34.2.2c-.3,0-.7-.1-1.1-.1A4.48,4.48,0,0,0,32,0H30.7C18.7.1,8.9,8.6,8.3,20v2.5h-2L6,21.9a4.23,4.23,0,0,0-.5-.7,2.65,2.65,0,0,0-.6-.5,5.94,5.94,0,0,0-.8-.4,2.77,2.77,0,0,0-.9-.1h0a2.72,2.72,0,0,0-1.7.6,3.82,3.82,0,0,0-.9.9A4.92,4.92,0,0,0,0,23.4v.1a2.77,2.77,0,0,0,.1.9,3,3,0,0,0,.4.8,2.65,2.65,0,0,0,.5.6,2.65,2.65,0,0,0,.6.5c.3.1.5.2.8.3a2.2,2.2,0,0,0,.8.1h.3a3.31,3.31,0,0,0,2.7-2H8.5l.1.6a1.27,1.27,0,0,1,.1.6c.1.4.2.9.3,1.3a23.4,23.4,0,0,0,.9,2.4c.4.8.8,1.5,1.2,2.3A13.66,13.66,0,0,0,12.6,34c.6.7,1.2,1.4,1.8,2a17.38,17.38,0,0,0,1.5,1.3c.3.2.6.5.9.7s.6.4,1,.7.7.4,1,.6.7.4,1,.6a5.36,5.36,0,0,0,1.1.5c.4.2.8.3,1.2.5s.8.3,1.2.4l1,.3.2.1a6.47,6.47,0,0,1,1.3.4,5.85,5.85,0,0,0,1.3.2c.1,0,.3.1.4.1a2,2,0,0,0,.4.8,6.47,6.47,0,0,0,.8.9c.1.1.2.2.3.2h.1a2.82,2.82,0,0,0,1.5.4,3,3,0,0,0,1-.2.76.76,0,0,0,.4-.2h.1a.1.1,0,0,0,.1-.1,2.83,2.83,0,0,0,1.4-1.8v-.2a2.2,2.2,0,0,0,.1-.8,3.26,3.26,0,0,0-1-2.3,2.38,2.38,0,0,0-1.1-.6h0V33H29.9a7.72,7.72,0,0,1-1.5-.2l-1.3-.3a5.64,5.64,0,0,1-1.2-.4,6,6,0,0,1-1.1-.6,8.79,8.79,0,0,1-1-.6c-.3-.2-.6-.5-.9-.7a3,3,0,0,1-.8-.8,5.5,5.5,0,0,1-.7-.9c-.2-.3-.4-.6-.7-1a10.91,10.91,0,0,1-.6-1.1,5.64,5.64,0,0,1-.4-1.2,1.27,1.27,0,0,1-.1-.6H30.8V22.5H19.5v-.2a11,11,0,0,1,.2-1.8,7.49,7.49,0,0,1,.5-1.6,10.93,10.93,0,0,1,5.6-5.6c.6-.2,1.1-.4,1.7-.6a14.16,14.16,0,0,1,2-.4c.3,0,.6-.1.9-.1h1.2a3.54,3.54,0,0,0,.1-.6v-.1a.76.76,0,0,1,.2-.4c.1-.2.2-.3.2-.5s.1-.1.1-.2a.1.1,0,0,1,.1-.1v-.2a6.75,6.75,0,0,1,3-2.3,7.94,7.94,0,0,1,2.2-.6,10.28,10.28,0,0,1,1.7-.1h.5c.4,0,.7.1,1,.1l1.3.3a6.12,6.12,0,0,1,1.2.5,8.79,8.79,0,0,1,1,.6c.3.2.6.5.9.7a3,3,0,0,1,.8.8,5.5,5.5,0,0,1,.7.9,8.65,8.65,0,0,1,.7,1,8.79,8.79,0,0,0,.6,1,5.36,5.36,0,0,1,.5,1.1,5.64,5.64,0,0,1,.4,1.2,2.92,2.92,0,0,1,.2.9,4.4,4.4,0,0,0,.2,1,7,7,0,1,0,9.9.7A6.93,6.93,0,0,0,53.8,15.8ZM3.3,24.7h0a1.3,1.3,0,1,1,0-2.6,1.3,1.3,0,0,1,0,2.6ZM30.6,40.1a1.3,1.3,0,1,1-1.3,1.3A1.32,1.32,0,0,1,30.6,40.1ZM35.5,4.5a9.62,9.62,0,0,0-1.8.7,8.44,8.44,0,0,0-3.5,3.5,5.29,5.29,0,0,0-.6,1.3h0l-.9.2c-.5.1-.9.1-1.3.2a9.83,9.83,0,0,0-1.6.5,20,20,0,0,0-2.1,1,13,13,0,0,0-4.8,4.8,7.22,7.22,0,0,0-.9,2,8.33,8.33,0,0,0-.4,1.5c-.1.4-.1.9-.2,1.3s-.1.7-.1,1v.2a7.57,7.57,0,0,0,.1,1.5c.1.5.2.9.3,1.3a5.64,5.64,0,0,0,.4,1.2,11.73,11.73,0,0,0,.5,1.1,8.79,8.79,0,0,0,.6,1,6.07,6.07,0,0,0,.7,1c.2.3.5.6.7.9l.8.8a5.5,5.5,0,0,0,.9.7c.3.2.6.4,1,.7s.7.4,1,.6a5.36,5.36,0,0,0,1.1.5,5.64,5.64,0,0,0,1.2.4l1.3.3c.5.1.9.1,1.4.2v3.5h0a2.07,2.07,0,0,0-1,.6,19.77,19.77,0,0,1-10.9-4.6l-.6-.6a17.46,17.46,0,0,1-1-24.5l1-1A20.2,20.2,0,0,1,28.9,3.1h2.2a3.08,3.08,0,0,1,1,.1l1,.1c.3,0,.7.1,1,.1s.6.1.9.2.6.1.9.2l1.1.3A11.31,11.31,0,0,0,35.5,4.5Zm18.3,22a3.6,3.6,0,1,1,3.6-3.6A3.59,3.59,0,0,1,53.8,26.5Z"/></svg>